<svg id="레이어_1" data-name="레이어 1" xmlns="http://www.w3.org/2000/svg" xmlns:xlink="http://www.w3.org/1999/xlink" viewBox="0 0 700.11 695"><defs><style>.cls-1{fill:none;}.cls-2{fill:#ffc800;}.cls-3{clip-path:url(#clip-path);}.cls-10,.cls-4{fill:#606060;}.cls-4{opacity:0.36;}.cls-5{fill:#fff;}.cls-6{fill:#3e3d3b;}.cls-7{fill:#395054;}.cls-8{fill:#a2d9eb;}.cls-9{stroke:#000;stroke-miterlimit:10;stroke-width:3px;}</style><clipPath id="clip-path" transform="translate(-29 -30)"><circle class="cls-1" cx="361" cy="362" r="332"/></clipPath></defs><circle class="cls-2" cx="332" cy="332" r="332"/><g class="cls-3"><polyline class="cls-4" points="171.25 578.41 240 695 700.11 695 700.11 462 549.52 211.55 166 203.89 168.51 573.22"/></g><path class="cls-5" d="M501,125" transform="translate(-29 -30)"/><path class="cls-6" d="M759,200" transform="translate(-29 -30)"/><path class="cls-7" d="M195,274V594.45S197,614,216,621s273.29,0,273.29,0S508,617.5,514,600.75,514,274,514,274Z" transform="translate(-29 -30)"/><path class="cls-8" d="M214,274V592.66S214,605,225,603s264.5.22,264.5.22S498,599,498,586V274Z" transform="translate(-29 -30)"/><polygon class="cls-5" points="231 244 231 337.5 185.67 337.5 185.67 362.44 231 362.44 231 461.56 424 462 424 361.56 469 361 469 337.5 423.89 337.5 424.33 244 231 244"/><line class="cls-9" x1="246" y1="256" x2="407" y2="256"/><line class="cls-9" x1="246.5" y1="271" x2="407.5" y2="271"/><line class="cls-9" x1="246.5" y1="284" x2="407.5" y2="284"/><line class="cls-9" x1="246.5" y1="297" x2="407.5" y2="297"/><line class="cls-9" x1="246.5" y1="311" x2="407.5" y2="311"/><line class="cls-9" x1="246.5" y1="324" x2="407.5" y2="324"/><line class="cls-9" x1="246.5" y1="337" x2="407.5" y2="337"/><line class="cls-9" x1="246.5" y1="351" x2="407.5" y2="351"/><line class="cls-9" x1="245.5" y1="363" x2="406.5" y2="363"/><line class="cls-9" x1="245.5" y1="378" x2="406.5" y2="378"/><line class="cls-9" x1="245.5" y1="391" x2="406.5" y2="391"/><line class="cls-9" x1="247" y1="402.5" x2="408" y2="402.5"/><line class="cls-9" x1="247" y1="415.5" x2="408" y2="415.5"/><line class="cls-9" x1="248" y1="428.5" x2="409" y2="428.5"/><path class="cls-6" d="M202.89,121H505.25a12.75,12.75,0,0,1,7.75,1c3.89,2,5.52,5.91,6,7,3.09,7,31.34,59.95,71,134a7.8,7.8,0,0,1,0,8,7.48,7.48,0,0,1-4,3H131.24a9.64,9.64,0,0,1-6.54-2.26A10.62,10.62,0,0,1,122,265c-.71-9.59,59.33-121,68-137a10.76,10.76,0,0,1,12.89-7Z" transform="translate(-29 -30)"/><path class="cls-10" d="M401,330" transform="translate(-29 -30)"/></svg>