<svg id="레이어_1" data-name="레이어 1" xmlns="http://www.w3.org/2000/svg" viewBox="0 0 600.01 650.22"><defs><style>.cls-1{fill:#606060;opacity:0.36;}.cls-2{fill:#fff;}.cls-3{fill:#3e3d3b;}.cls-4{fill:#395054;}.cls-5{fill:#a2d9eb;}.cls-6{stroke:#000;stroke-miterlimit:10;stroke-width:3px;}</style></defs><polyline class="cls-1" points="78.15 488.55 174.01 646.33 600.01 650.22 600.01 387.1 468.01 143.33 78.15 143.33"/><path class="cls-2" d="M499,85" transform="translate(-119.99 -80.67)"/><path class="cls-3" d="M200.89,81H503.25A12.75,12.75,0,0,1,511,82c3.89,2,5.52,5.91,6,7,3.09,7,31.34,59.95,71,134a7.8,7.8,0,0,1,0,8,7.48,7.48,0,0,1-4,3H129.24a9.64,9.64,0,0,1-6.54-2.26A10.62,10.62,0,0,1,120,225c-.71-9.59,59.33-121,68-137a10.76,10.76,0,0,1,12.89-7Z" transform="translate(-119.99 -80.67)"/><path class="cls-3" d="M758,160" transform="translate(-119.99 -80.67)"/><path class="cls-4" d="M193,234V554.45S195,574,214,581s273.29,0,273.29,0S506,577.5,512,560.75,512,234,512,234Z" transform="translate(-119.99 -80.67)"/><path class="cls-5" d="M212,234V552.66S212,565,223,563s264.5.22,264.5.22S496,559,496,546V234Z" transform="translate(-119.99 -80.67)"/><polygon class="cls-2" points="138.01 153.33 138.01 246.83 92.67 246.83 92.67 271.77 138.01 271.77 138.01 370.88 331.01 371.33 331.01 270.88 376.01 270.33 376.01 246.83 330.89 246.83 331.34 153.33 138.01 153.33"/><line class="cls-6" x1="153.01" y1="165.33" x2="314.01" y2="165.33"/><line class="cls-6" x1="153.51" y1="180.33" x2="314.51" y2="180.33"/><line class="cls-6" x1="153.51" y1="193.33" x2="314.51" y2="193.33"/><line class="cls-6" x1="153.51" y1="206.33" x2="314.51" y2="206.33"/><line class="cls-6" x1="153.51" y1="220.33" x2="314.51" y2="220.33"/><line class="cls-6" x1="153.51" y1="233.33" x2="314.51" y2="233.33"/><line class="cls-6" x1="153.51" y1="246.33" x2="314.51" y2="246.33"/><line class="cls-6" x1="153.51" y1="260.33" x2="314.51" y2="260.33"/><line class="cls-6" x1="152.51" y1="272.33" x2="313.51" y2="272.33"/><line class="cls-6" x1="152.51" y1="287.33" x2="313.51" y2="287.33"/><line class="cls-6" x1="152.51" y1="300.33" x2="313.51" y2="300.33"/><line class="cls-6" x1="154.01" y1="311.83" x2="315.01" y2="311.83"/><line class="cls-6" x1="154.01" y1="324.83" x2="315.01" y2="324.83"/><line class="cls-6" x1="155.01" y1="337.83" x2="316.01" y2="337.83"/></svg>